<?xml version="1.0" encoding="utf-8"?>
<!-- Generator: Adobe Illustrator 21.0.0, SVG Export Plug-In . SVG Version: 6.00 Build 0)  -->
<svg version="1.1" id="圖層_1" xmlns="http://www.w3.org/2000/svg" xmlns:xlink="http://www.w3.org/1999/xlink" x="0px" y="0px"
	 viewBox="0 0 214.7 33" style="enable-background:new 0 0 214.7 33;" xml:space="preserve">
<style type="text/css">
	.st0{fill:#AAAAAA;}
</style>
<g>
	<polygon class="st0" points="69.6,7.6 60.3,7.6 60.3,11.3 68.8,11.3 68.8,14.4 60.3,14.4 60.3,18.9 70,18.9 70,22 56.7,22 
		56.7,4.5 69.6,4.5 	"/>
	<polygon class="st0" points="76.6,18.8 85.3,18.8 85.3,22 73,22 73,4.5 76.6,4.5 	"/>
	<rect x="87.6" y="4.5" class="st0" width="3.7" height="17.5"/>
	<polygon class="st0" points="102.1,22 98.4,22 98.4,7.6 93.1,7.6 93.1,4.5 107.4,4.5 107.4,7.6 102.1,7.6 	"/>
	<polygon class="st0" points="122.4,7.6 113.1,7.6 113.1,11.3 121.7,11.3 121.7,14.4 113.1,14.4 113.1,18.9 122.8,18.9 122.8,22 
		109.5,22 109.5,4.5 122.4,4.5 	"/>
	<path class="st0" d="M134,12.6h7.3V22h-2.4l-0.4-2.2c-0.9,1.1-2.3,2.6-5.5,2.6c-4.2,0-8-3-8-9.2c0-4.8,2.7-9.3,8.6-9.3
		c5.4,0,7.5,3.5,7.7,5.9h-3.7c0-0.7-1.2-2.9-3.8-2.9s-5,1.8-5,6.3c0,4.8,2.6,6,5.1,6c0.8,0,3.5-0.3,4.2-3.9H134V12.6z"/>
	<path class="st0" d="M148.4,12.2V7.5h4.6c2.1,0,2.6,1.4,2.6,2.3c0,1.7-0.9,2.4-2.8,2.4L148.4,12.2 M144.8,22h3.6v-6.8h3.8
		c2.7,0,2.9,0.9,2.9,3.3c0,1.8,0.2,2.7,0.4,3.5h4v-0.5c-0.8-0.3-0.8-0.9-0.8-3.5c0-3.3-0.8-3.8-2.2-4.4c1.7-0.6,2.7-2.2,2.7-4.2
		c0-1.5-0.8-4.9-5.5-4.9h-8.9V22z"/>
	<path class="st0" d="M164.8,13.3c0-4.9,2.8-6.1,4.7-6.1c2,0,4.8,1.2,4.8,6.1s-2.8,6.1-4.8,6.1C167.6,19.4,164.8,18.2,164.8,13.3
		 M161.1,13.3c0,8.2,6.1,9.2,8.4,9.2c2.3,0,8.4-1,8.4-9.2s-6.1-9.2-8.4-9.2C167.2,4,161.1,5,161.1,13.3z"/>
	<path class="st0" d="M194.9,15.9c0,4.6-2.8,6.6-7.2,6.6c-1.6,0-4-0.4-5.6-2.1c-1-1.1-1.3-2.5-1.4-4.2V4.5h3.7v11.4
		c0,2.4,1.4,3.5,3.1,3.5c2.5,0,3.5-1.2,3.5-3.3V4.5h3.7v11.4H194.9z"/>
	<path class="st0" d="M202.1,12.7V7.5h2.9c2.3,0,3.2,0.7,3.2,2.4c0,0.8,0,2.7-2.7,2.7h-3.4 M202.1,15.7h4.2c4.7,0,5.6-4,5.6-5.6
		c0-3.4-2-5.6-5.4-5.6h-8V22h3.7v-6.3H202.1z"/>
	<g>
		<path class="st0" d="M16.1,18.1h-5.9l0.3-2.4h5c0-0.6,0-1.3,0.1-1.9c0.1-0.8,0.3-1.5,0.6-2.2H11l0.3-2.1h5.9c0,0,0,0,0-0.1
			l0.5-4.1H5.5l-2,17h8.7c1.5-1,3.1-1.9,4.8-2.7C16.6,19.2,16.3,18.6,16.1,18.1z"/>
		<path class="st0" d="M16.2,11.6c0.3-0.8,0.6-1.5,1-2.1l0,0V9.4c2-3,5.5-4.6,10.4-4.4c1.4,0,2.6,0.1,3.9,0.4l-0.6,4.8
			c-1-0.3-1.9-0.5-2.9-0.5c-3.7-0.1-5.7,1.5-6.1,4c-0.2,1.4,0.4,2.7,1.4,3.4c-1.2,0.4-2.4,0.8-3.5,1.2c-1,0.4-1.9,0.8-2.9,1.3
			c-0.4-0.5-0.7-1-0.9-1.6c-0.3-0.7-0.5-1.5-0.5-2.4C15.6,15.7,15.4,13.9,16.2,11.6z"/>
		<path class="st0" d="M43.4,15.7c-2.2-0.3-4.4-0.5-6.7-0.5c-0.6,0-1.2,0-1.7,0c-4,0.1-7.9,0.8-11.5,1.9c-1.2,0.4-2.4,0.8-3.5,1.2
			c-1,0.4-1.9,0.8-2.9,1.3c-1.7,0.8-3.3,1.7-4.8,2.7l0,0l9.3,8.7c2.1-3.8,5.1-7,8.6-9.5c3.9-2.7,8.5-4.4,13.4-4.9
			c0.9-0.1,1.8-0.1,2.7-0.1c0.5,0,1,0,1.4,0C46.3,16.2,44.8,15.9,43.4,15.7z M36.5,17.4c-0.1,0.2-0.2,0.4-0.4,0.5
			c-0.4,0.2-1,0.4-1.7,0.4c-1.7,0.8-3.3,1.7-4.8,2.7l0,0c-0.3,0.2-0.6,0.4-0.9,0.7c-2.9,2.2-5.5,5-7.4,8.2l-7.7-7.4
			c0.1,0,0.1-0.1,0.2-0.1c1.2-0.8,2.5-1.4,3.8-2.1c0.7-0.4,1.5-0.7,2.3-1c1.5-0.6,3.1-1.2,4.7-1.6c1.8-0.5,3.7-0.9,5.6-1.2l0,0l0,0
			c2-0.3,4-0.4,6-0.4h0.1c1.5,0,3,0.1,4.5,0.2C39.3,16.5,37.9,16.9,36.5,17.4z"/>
		<path class="st0" d="M29.5,21.2l0.6-4.8c0.3,0.3,0.7,0.6,1,0.8c2,1.3,4,1.2,4.9,0.7c0.7-0.5,0.7-1.4-0.1-2
			c-0.1-0.1-0.3-0.2-0.5-0.3l-1.9-1.1c-0.4-0.2-0.7-0.5-1.1-0.7c-2.4-2-2.1-6.1,1.2-8.1c0.5-0.3,1-0.5,1.5-0.7
			c3.3-1.1,6.5-0.5,8.7,1.4l-0.6,5.3c-0.2-0.4-0.5-0.7-0.8-1c-0.9-1.4-2.4-2-3.4-1.9c-0.9,0.1-1.3,0.4-1.4,1c-0.2,0.7,0.1,1.2,1.3,2
			c0.2,0.1,0.3,0.2,0.5,0.3L41,13c0.3,0.2,0.6,0.4,0.9,0.6c2.1,1.6,2.3,4.6-0.2,6.8c-1.7,1.5-4.7,2.4-8.2,2
			C32.2,22.4,30.8,21.9,29.5,21.2L29.5,21.2z"/>
	</g>
</g>
</svg>
